<svg xmlns="http://www.w3.org/2000/svg" version="1.1" xmlns:xlink="http://www.w3.org/1999/xlink" xmlns:svgjs="http://svgjs.dev/svgjs" width="2000" height="449" viewBox="0 0 2000 449"><g transform="matrix(1,0,0,1,-1.2121212121212466,-0.04275388302599481)"><svg viewBox="0 0 396 89" data-background-color="#ffffff" preserveAspectRatio="xMidYMid meet" height="449" width="2000" xmlns="http://www.w3.org/2000/svg" xmlns:xlink="http://www.w3.org/1999/xlink"><defs></defs><g id="tight-bounds" transform="matrix(1,0,0,1,0.2400000000000091,0.008474600421635614)"><svg viewBox="0 0 395.52 88.98305079915674" height="88.98305079915674" width="395.52"><g><svg viewBox="0 0 397.4975999999999 89.42796605315252" height="88.98305079915674" width="395.52"><g><rect width="397.4975999999999" height="2.73906048693688" x="0" y="49.145678843649506" fill="#000000" opacity="1" stroke-width="0" stroke="transparent" fill-opacity="1" class="rect-ti-0" data-fill-palette-color="primary" rx="1%" id="ti-0" data-palette-color="#111111"></rect></g><g transform="matrix(1,0,0,1,0.9887999999999693,59.055054741415915)"><svg viewBox="0 0 395.52 30.372911311736594" height="30.372911311736594" width="395.52"><g><svg viewBox="0 0 395.52 30.372911311736594" height="30.372911311736594" width="395.52"><g><svg viewBox="0 0 395.52 30.372911311736594" height="30.372911311736594" width="395.52"><g transform="matrix(1,0,0,1,0,0)"><svg width="395.52" viewBox="2.8 -35.8 470.71999999999997 36.15" height="30.372911311736594" data-palette-color="#111111"><g class="undefined-text-0" data-fill-palette-color="primary" id="text-0"><path d="M32.15-35.25L43.95-35.25 43.95 0 34.15 0 34.15-19.45 27.5 0 19.3 0 12.6-19.6 12.6 0 2.8 0 2.8-35.25 14.65-35.25 23.5-12.35 32.15-35.25ZM72.1-27.4L59.35-27.4 59.35-21.65 70.6-21.65 70.6-14.2 59.35-14.2 59.35-7.85 72.1-7.85 72.1 0 49.55 0 49.55-35.25 72.1-35.25 72.1-27.4ZM86.75-35.25L86.75-7.5 97.7-7.5 97.7 0 76.95 0 76.95-35.25 86.75-35.25ZM118.39 0.35Q113.44 0.35 109.29-1.98 105.14-4.3 102.72-8.43 100.29-12.55 100.29-17.75L100.29-17.75Q100.29-22.95 102.72-27.08 105.14-31.2 109.29-33.5 113.44-35.8 118.39-35.8L118.39-35.8Q123.39-35.8 127.52-33.5 131.64-31.2 134.04-27.08 136.44-22.95 136.44-17.75L136.44-17.75Q136.44-12.55 134.04-8.43 131.64-4.3 127.49-1.98 123.34 0.35 118.39 0.35L118.39 0.35ZM118.39-8.75Q122.14-8.75 124.32-11.2 126.49-13.65 126.49-17.75L126.49-17.75Q126.49-21.95 124.32-24.38 122.14-26.8 118.39-26.8L118.39-26.8Q114.59-26.8 112.44-24.38 110.29-21.95 110.29-17.75L110.29-17.75Q110.29-13.6 112.44-11.18 114.59-8.75 118.39-8.75L118.39-8.75ZM154.79-35.25Q160.34-35.25 164.52-33.02 168.69-30.8 170.94-26.8 173.19-22.8 173.19-17.65L173.19-17.65Q173.19-12.55 170.92-8.55 168.64-4.55 164.47-2.27 160.29 0 154.79 0L154.79 0 140.84 0 140.84-35.25 154.79-35.25ZM154.04-8.65Q158.34-8.65 160.79-11 163.24-13.35 163.24-17.65L163.24-17.65Q163.24-22 160.79-24.38 158.34-26.75 154.04-26.75L154.04-26.75 150.64-26.75 150.64-8.65 154.04-8.65ZM198.59-35.25L209.64-35.25 197.24-11.2 197.24 0 187.39 0 187.39-11.2 174.99-35.25 186.19-35.25 192.39-21.65 198.59-35.25ZM236.84 0L234.94-5.75 222.44-5.75 220.54 0 210.24 0 223.09-35.25 234.39-35.25 247.19 0 236.84 0ZM224.94-13.25L232.49-13.25 228.69-24.65 224.94-13.25ZM250.23-35.25L259.98-35.25 259.98-14.8Q259.98-11.95 261.31-10.4 262.63-8.85 265.33-8.85L265.33-8.85Q268.03-8.85 269.41-10.43 270.78-12 270.78-14.8L270.78-14.8 270.78-35.25 280.58-35.25 280.58-14.8Q280.58-9.95 278.53-6.53 276.48-3.1 272.96-1.38 269.43 0.35 265.13 0.35L265.13 0.35Q260.83 0.35 257.46-1.38 254.08-3.1 252.16-6.5 250.23-9.9 250.23-14.8L250.23-14.8 250.23-35.25ZM284.78-17.7Q284.78-22.9 286.96-26.98 289.13-31.05 293.13-33.33 297.13-35.6 302.33-35.6L302.33-35.6Q308.93-35.6 313.43-32.08 317.93-28.55 319.23-22.5L319.23-22.5 308.68-22.5Q307.73-24.5 306.06-25.55 304.38-26.6 302.18-26.6L302.18-26.6Q298.78-26.6 296.76-24.18 294.73-21.75 294.73-17.7L294.73-17.7Q294.73-13.6 296.76-11.18 298.78-8.75 302.18-8.75L302.18-8.75Q304.38-8.75 306.06-9.8 307.73-10.85 308.68-12.85L308.68-12.85 319.23-12.85Q317.93-6.8 313.43-3.28 308.93 0.25 302.33 0.25L302.33 0.25Q297.13 0.25 293.13-2.02 289.13-4.3 286.96-8.38 284.78-12.45 284.78-17.7L284.78-17.7ZM321.93-35.25L350.43-35.25 350.43-27.45 341.03-27.45 341.03 0 331.23 0 331.23-27.45 321.93-27.45 321.93-35.25ZM354.08-35.25L363.88-35.25 363.88 0 354.08 0 354.08-35.25ZM386.37 0.35Q381.42 0.35 377.27-1.98 373.12-4.3 370.7-8.43 368.27-12.55 368.27-17.75L368.27-17.75Q368.27-22.95 370.7-27.08 373.12-31.2 377.27-33.5 381.42-35.8 386.37-35.8L386.37-35.8Q391.37-35.8 395.5-33.5 399.62-31.2 402.02-27.08 404.42-22.95 404.42-17.75L404.42-17.75Q404.42-12.55 402.02-8.43 399.62-4.3 395.47-1.98 391.32 0.35 386.37 0.35L386.37 0.35ZM386.37-8.75Q390.12-8.75 392.3-11.2 394.47-13.65 394.47-17.75L394.47-17.75Q394.47-21.95 392.3-24.38 390.12-26.8 386.37-26.8L386.37-26.8Q382.57-26.8 380.42-24.38 378.27-21.95 378.27-17.75L378.27-17.75Q378.27-13.6 380.42-11.18 382.57-8.75 386.37-8.75L386.37-8.75ZM441.47-35.25L441.47 0 431.67 0 418.62-19.7 418.62 0 408.82 0 408.82-35.25 418.62-35.25 431.67-15.3 431.67-35.25 441.47-35.25ZM460.37 0.35Q454.22 0.35 450.27-2.58 446.32-5.5 446.02-10.95L446.02-10.95 456.47-10.95Q456.62-9.1 457.57-8.25 458.52-7.4 460.02-7.4L460.02-7.4Q461.37-7.4 462.24-8.08 463.12-8.75 463.12-9.95L463.12-9.95Q463.12-11.5 461.67-12.35 460.22-13.2 456.97-14.25L456.97-14.25Q453.52-15.4 451.39-16.48 449.27-17.55 447.69-19.63 446.12-21.7 446.12-25.05L446.12-25.05Q446.12-28.45 447.82-30.88 449.52-33.3 452.52-34.55 455.52-35.8 459.32-35.8L459.32-35.8Q465.47-35.8 469.14-32.93 472.82-30.05 473.07-24.85L473.07-24.85 462.42-24.85Q462.37-26.45 461.44-27.25 460.52-28.05 459.07-28.05L459.07-28.05Q457.97-28.05 457.27-27.4 456.57-26.75 456.57-25.55L456.57-25.55Q456.57-24.55 457.34-23.83 458.12-23.1 459.27-22.58 460.42-22.05 462.67-21.25L462.67-21.25Q466.02-20.1 468.19-18.98 470.37-17.85 471.94-15.83 473.52-13.8 473.52-10.7L473.52-10.7Q473.52-7.55 471.94-5.05 470.37-2.55 467.39-1.1 464.42 0.35 460.37 0.35L460.37 0.35Z" fill="#000000" data-fill-palette-color="primary"></path></g></svg></g></svg></g></svg></g></svg></g><g transform="matrix(1,0,0,1,171.6472689579657,0)"><svg viewBox="0 0 54.20306208406849 41.975363432819975" height="41.975363432819975" width="54.20306208406849"><g><svg xmlns="http://www.w3.org/2000/svg" xmlns:xlink="http://www.w3.org/1999/xlink" version="1.1" x="0" y="0" viewBox="2 59.30000000000003 507.99999999999994 393.4" enable-background="new 0 0 512 512" xml:space="preserve" height="41.975363432819975" width="54.20306208406849" class="icon-icon-0" data-fill-palette-color="accent" id="icon-0"><g fill="#0074d9" data-fill-palette-color="accent"><path d="M141.3 354.3H43c-22.6 0-41 18.4-41 41v57.4h180.3v-57.4C182.3 372.7 163.9 354.3 141.3 354.3zM43 370.7h98.3c10.7 0 19.7 6.9 23.1 16.4H19.9C23.3 377.6 32.3 370.7 43 370.7zM18.4 436.3v-32.8h147.5v32.8H18.4z" fill="#000000" data-fill-palette-color="accent"></path><path d="M495.5 156c-9.4-9.1-21.8-14.1-34.8-13.6l-294.8 7.3v8h-32.8v-32.8h-16.4v-16.4h8.2c13.6 0 24.6-11 24.6-24.6s-11-24.6-24.6-24.6H43c-13.6 0-24.6 11-24.6 24.6s11 24.6 24.6 24.6h8.2v16.4H34.8V256h16.4v16.4H43c-13.6 0-24.6 11-24.6 24.6s11 24.6 24.6 24.6h81.9c13.6 0 24.6-11 24.6-24.6s-11-24.6-24.6-24.6h-8.2V256h16.4v-32.8h32.8v8l294.8 7.2c0.4 0 0.9 0 1.4 0 12.6 0 24.4-4.8 33.4-13.6 9.4-9.1 14.5-21.4 14.5-34.4C510 177.4 504.8 165.1 495.5 156zM133.1 297c0 4.5-3.7 8.2-8.2 8.2H43c-4.5 0-8.2-3.7-8.2-8.2s3.7-8.2 8.2-8.2h81.9C129.4 288.8 133.1 292.5 133.1 297zM43 92.1c-4.5 0-8.2-3.7-8.2-8.2s3.7-8.2 8.2-8.2h81.9c4.5 0 8.2 3.7 8.2 8.2s-3.7 8.2-8.2 8.2h-8.2v0H51.2v0H43zM67.5 108.5h32.8v16.4H67.5V108.5zM100.3 272.4H67.5V256h32.8V272.4zM116.7 239.6H51.2v-98.3h65.5v16.4 65.5V239.6zM133.1 206.8v-32.8h32.8v32.8H133.1zM484 213.1c-6.2 6-14.3 9.3-22.9 8.9l-278.8-6.9v-49.6l278.8-6.9c8.6-0.2 16.8 2.9 22.9 8.9 6.2 6 9.6 14.1 9.6 22.7C493.6 199.1 490.2 207.1 484 213.1z" fill="#000000" data-fill-palette-color="accent"></path><rect x="206.8" y="182.3" width="16.4" height="16.4" fill="#000000" data-fill-palette-color="accent"></rect><rect x="239.6" y="182.3" width="16.4" height="16.4" fill="#000000" data-fill-palette-color="accent"></rect><rect x="272.4" y="182.3" width="16.4" height="16.4" fill="#000000" data-fill-palette-color="accent"></rect></g></svg></g></svg></g><g></g></svg></g></svg><rect width="395.52" height="88.98305079915674" fill="none" stroke="none" visibility="hidden"></rect></g></svg></g></svg>